<svg xmlns="http://www.w3.org/2000/svg" viewBox="376.475 336.3749938964844 71.55 61.85001831054687"><style type="text/css">
	.st0{fill:#00A5A3;}
	.st1{clip-path:url(#SVGID_00000147937151934268469940000011022879890502997925_);}
	.st2{fill:#FFFFFF;}
	.st3{opacity:5.000000e-02;}
	.st4{fill:#EEE7D8;}
	.st5{fill:#CE5925;}
	.st6{fill:#A2D2D8;}
	.st7{fill:#FFF4C5;}
	.st8{fill:#CAE5DA;}
	.st9{fill:#E2E2E1;}
	.st10{fill:#E1E2E1;}
	.st11{fill:#C5E1D5;}
	.st12{fill:none;stroke:#FFFFFF;stroke-width:4;stroke-linecap:round;stroke-linejoin:round;}
	.st13{fill:none;stroke:#FFFFFF;stroke-width:4;stroke-linecap:round;stroke-linejoin:round;stroke-dasharray:12.131,12.131;}
	.st14{fill:none;stroke:#FFFFFF;stroke-width:4;stroke-linecap:round;stroke-linejoin:round;stroke-dasharray:12.0552,12.0552;}
	.st15{fill:#20B4B1;}
	.st16{fill:#F8B84E;}
	.st17{opacity:0.1;fill:#1A1414;}
	.st18{fill:#AC7F3D;}
	.st19{fill:#1A1414;}
	.st20{opacity:5.000000e-02;fill:#1A1414;}
	.st21{opacity:0.1;}
	.st22{fill:#3C3C3B;}
	.st23{fill:#C0CFD9;}
	.st24{fill:#B74848;}
	.st25{fill:#FEFEFE;}
	.st26{fill:#DADADA;}
	.st27{fill:#222223;}
	.st28{fill:#58639B;}
	.st29{fill:#1F1919;}
	.st30{opacity:0.25;}
	.st31{fill:#F9F6F6;}
	.st32{opacity:0.2;}
	.st33{fill:#281E17;}
	.st34{fill:#1E1717;}
	.st35{fill:#221A17;}
	.st36{fill:#D7A45A;}
	.st37{fill:#FCF8D5;}
	.st38{fill:#B2B2B2;}
	.st39{opacity:0.7;}
	.st40{fill:#72C6CD;}
	.st41{opacity:0.1;fill:#1D1715;}
	.st42{opacity:0.2;fill:#221A16;}
	.st43{opacity:0.2;fill:#1A1414;}
	.st44{opacity:0.15;fill:#221A16;}
	.st45{fill:#7B4F26;}
	.st46{opacity:0.1;fill:#241B17;}
	.st47{opacity:0.1;fill:#211916;}
	.st48{fill:#F6E570;}
	.st49{fill:#A1A2A2;}
	.st50{fill:#BDBCBC;}
	.st51{fill:#6EC5CC;}
	.st52{opacity:0.2;fill:#020304;}
	.st53{fill:#EDEDED;}
	.st54{fill:#D1D1D1;}
	.st55{fill:#706F6F;}
	.st56{fill:#109B97;}
	.st57{fill:#FFD31B;}
	.st58{fill:#010202;}
	.st59{fill:#9A9999;}
	.st60{fill:#D8D9D9;}
	.st61{fill:#DB1229;}
	.st62{fill:#5DB130;}
	.st63{fill:#F6E222;}
	.st64{fill:#D11317;}
	.st65{fill:#3FBAC4;}
	.st66{fill:#029E81;}
	.st67{opacity:0.1;fill:#010202;}
	.st68{fill:#E72B69;}
	.st69{fill:#5CB244;}
	.st70{fill:#595AA0;}
	.st71{fill:#38B1E0;}
	.st72{fill:#F3E73A;}
	.st73{fill:#F39038;}
	.st74{fill:#F2EA68;}
	.st75{fill:#6F716F;}
	.st76{fill:#EDE1A2;}
	.st77{opacity:0.2;fill:#010202;}
	.st78{fill:#EB5B5B;}
	.st79{opacity:0.2;fill-rule:evenodd;clip-rule:evenodd;fill:#030304;}
	.st80{fill-rule:evenodd;clip-rule:evenodd;fill:#385FA9;}
	.st81{fill-rule:evenodd;clip-rule:evenodd;fill:#FFFFFF;}
	.st82{fill-rule:evenodd;clip-rule:evenodd;fill:#18A8E1;}
	.st83{fill-rule:evenodd;clip-rule:evenodd;fill:#52B47D;}
	.st84{fill-rule:evenodd;clip-rule:evenodd;fill:#E41513;}
	.st85{fill-rule:evenodd;clip-rule:evenodd;fill:#FCFCFC;}
	.st86{fill-rule:evenodd;clip-rule:evenodd;fill:#1078BC;}
	.st87{fill:#2CBDED;}
	.st88{fill:#2B6196;}
	.st89{fill:#F39323;}
	.st90{fill:#343434;}
	.st91{fill:#676767;}
	.st92{opacity:0.2;fill:#343434;}
	.st93{fill:#9DC53C;}
	.st94{fill:#E99F0B;stroke:#E99F0B;stroke-miterlimit:10;}
	.st95{fill:#F3BB2C;stroke:#F3BB2C;stroke-miterlimit:10;}
	.st96{opacity:0.2;fill:#020203;stroke:#020203;stroke-miterlimit:10;}
	.st97{fill:#F3A930;stroke:#F3A930;stroke-miterlimit:10;}
	.st98{opacity:0.2;fill:#040505;stroke:#040505;stroke-miterlimit:10;}
	.st99{fill:#FFFFFF;stroke:#FFFFFF;stroke-miterlimit:10;}
	.st100{fill:#02A186;}
	.st101{fill:#DC4A21;}
	.st102{fill:#F8C138;}
	.st103{fill:#EA771A;}
	.st104{fill:#EF952D;}
	.st105{fill:#3D53A0;}
	.st106{fill:#EB5B5A;}
	.st107{clip-path:url(#SVGID_00000023997981077628583130000003425203895463791799_);}
	.st108{fill:none;}
	.st109{font-family:'HarlowSolid';}
	.st110{font-size:30px;}
	.st111{font-size:25px;}
	.st112{font-family:'RobotoSlab-Regular';}
	.st113{font-size:12px;}
	.st114{font-family:'RobotoSlab-Bold';}
	.st115{font-size:39.6164px;}
	.st116{font-family:'DKAintNothingFancy';}
	.st117{font-size:22px;}
	.st118{font-size:30.0954px;}
	.st119{font-size:37.5681px;}
	.st120{font-size:21.322px;}
	.st121{fill:#F6F4F5;}
	.st122{fill:#7C7B7C;}
	.st123{fill:#F9F8F9;}
	.st124{fill:#AEC4E7;}
	.st125{fill:#1F191D;}
	.st126{fill:#1D1515;}
	.st127{fill:#CDCBCA;}
	.st128{fill:#D6EBE9;}
	.st129{fill:#7C7C7D;}
	.st130{fill:#37A2A8;}
	.st131{fill:#23B4B1;}
	.st132{fill:#73C6CD;}
	.st133{fill:#AF843E;}
	.st134{fill:#090A0B;}
	.st135{fill:#FAF9F8;}
	.st136{fill:#FCC156;}
	.st137{fill:#1A140C;}
	.st138{fill:#070708;}
	.st139{fill:#100D0A;}
	.st140{fill:none;stroke:#FFD31B;stroke-miterlimit:10;stroke-dasharray:1,1,1,1,1,1;}
	.st141{fill:none;stroke:#9DC53C;stroke-miterlimit:10;stroke-dasharray:1,1,1,1,1,1;}
	.st142{fill:#A77C3D;}
	.st143{fill:#67BEA5;}
	.st144{fill:#D8676E;}
	.st145{font-size:31.8656px;}
	.st146{fill:#291C19;}
	.st147{fill:#9FA6AF;}
	.st148{opacity:0.2;fill:#007BB5;}
	.st149{fill:#ACB6C6;}
	.st150{fill:none;stroke:#58639B;stroke-miterlimit:10;stroke-dasharray:1,1,1,1,1,1;}
	.st151{opacity:0.25;fill:#FFFFFF;}
	.st152{fill:#575756;}
	.st153{fill:none;stroke:#D8676E;stroke-miterlimit:10;stroke-dasharray:1,1,1,1,1,1;}
	.st154{fill:#F5A153;}
	.st155{fill:#195275;}
	.st156{fill:#1078BC;}
	.st157{fill:#1E5F90;}
	.st158{fill:#5C5D5D;}
	.st159{fill:#5AB990;}
	.st160{opacity:0.4;fill:#F9F8F9;}
	.st161{font-family:'FontAwesome';}
	.st162{font-size:14px;}
	.st163{font-family:'MyriadPro-Regular';}
	.st164{font-family:'Strasua-Regular';}
	.st165{fill:#1B8CCD;}
	.st166{fill:#10AE8F;}
	.st167{opacity:0.1;fill:#FFFFFF;}
	.st168{opacity:0.15;fill:#F9F8F9;}
	.st169{fill:#5AC1D2;}
	.st170{fill:#020404;}
	.st171{fill:#34A2A7;}
	.st172{fill:#D3D5D7;}
	.st173{fill:#87CABC;}
	.st174{fill:#C2C4C8;}
	.st175{fill:#BCBFC2;}
	.st176{fill:#E75739;}
	.st177{fill:#3AB49D;}
	.st178{fill:#C14725;}
	.st179{fill:#FDFEFE;}
	.st180{fill:#E9A343;}
	.st181{fill:#D1943E;}
	.st182{fill:#EFC848;}
	.st183{fill:#77787A;}
	.st184{fill:#78787B;}
	.st185{fill:#7A7A7C;}
	.st186{fill:#79797C;}
	.st187{fill:#141829;}
	.st188{fill:#15182C;}
	.st189{fill:#070813;}
	.st190{fill:#05060C;}
	.st191{fill:#04060B;}
	.st192{fill:#0D101F;}
	.st193{fill:#080814;}
	.st194{fill:#1E2649;}
	.st195{fill:#253366;}
	.st196{fill:#1F2749;}
	.st197{fill:#253467;}
	.st198{fill:#05060D;}
	.st199{fill:#1E2548;}
	.st200{fill:#F49530;}
	.st201{fill:#5A73B7;}
	.st202{fill:#FFDE00;}
	.st203{font-size:35px;}
	.st204{fill:none;stroke:#20B4B1;stroke-width:5;stroke-linecap:round;stroke-miterlimit:10;}
	.st205{clip-path:url(#SVGID_00000101097710252214999440000017895211529144817043_);}
	.st206{fill:#F5A70D;}
	.st207{fill:#F2C553;}
	.st208{fill:#FFE3B3;}
	.st209{fill:#FBFAF6;}
	.st210{fill:#DAD6D9;}
	.st211{fill:#EAEAEA;}
	.st212{fill:#F28D5C;}
	.st213{opacity:7.000000e-02;fill:#1A1414;}
	.st214{fill:#222222;}
	.st215{fill:#966D42;}
	.st216{fill:#D7A45C;}
	.st217{fill:#97312D;stroke:#9E2723;stroke-miterlimit:10;}
	.st218{fill:#A8CB61;stroke:#A8CB61;stroke-miterlimit:10;}
	.st219{fill:#CBDE9B;stroke:#CADEA0;stroke-miterlimit:10;}
	.st220{fill:#1A1414;stroke:#1A1414;stroke-miterlimit:10;}
	.st221{fill:#C29253;}
	.st222{opacity:0.1;fill:#201918;}
	.st223{opacity:0.15;fill:#1A1414;}
	.st224{fill:#137BC0;}
	.st225{fill:#9A6B37;}
	.st226{fill:#A48A7B;stroke:#A48A7B;stroke-miterlimit:10;}
	.st227{fill:#8B8327;}
	.st228{fill:#FCFBFB;}
	.st229{fill:#F6B84F;}
	.st230{fill:#AC7E3D;}
	.st231{fill:#CBBBA0;stroke:#CBBBA0;stroke-miterlimit:10;}
	.st232{fill:#2C3436;}
	.st233{fill:#171E20;}
	.st234{fill:#C13A2B;}
	.st235{fill:#1C383E;}
	.st236{fill:#38707C;}
	.st237{fill:#366F7D;}
	.st238{fill:#1D383F;}
</style><defs>
			<rect id="SVGID_00000002358789654133881000000014413395148944162997_" x="-16.7" y="546.5" width="646" height="186.5"></rect>
		</defs><g>
			<g>
				<g>
					<path class="st18" d="M403.3,341.6C403.3,341.6,403.4,341.6,403.3,341.6C403.4,341.6,403.3,341.6,403.3,341.6z"></path>
				</g>
				<g>
					<path class="st18" d="M424.8,345.6c0,0.2,0,0.4,0.1,0.6C424.9,346,424.9,345.8,424.8,345.6z"></path>
				</g>
				<g>
					<path class="st18" d="M423.3,343.9C423.3,343.9,423.4,343.9,423.3,343.9C423.4,343.9,423.3,343.9,423.3,343.9z"></path>
				</g>
				<g>
					<g>
						<path class="st18" d="M425.8,353.6c-0.1-0.2-0.2-0.4-0.3-0.6c0-0.2,0-0.5,0-0.7c0.1-0.2,0.1-0.5,0.2-0.7
							c0.1-0.6-0.1-1.2-0.3-1.7c-0.1-0.6-0.3-1.3-0.4-1.9c-0.1-0.6-0.1-1.2-0.2-1.7c0,0.1-0.1,0.3-0.2,0.4c0.1-0.7-0.2-1.4-0.8-1.8
							c-0.2-0.1-0.3-0.2-0.5-0.3c-0.1-0.2-0.3-0.4-0.4-0.5c0.1-0.1,0.3-0.1,0.4,0c-0.4-0.3-0.8-0.6-1.2-0.9
							c-0.8-0.9-1.7-1.6-2.7-2.2c0,0,0-0.1,0-0.1c-0.2-0.8-1.2-1.1-2.1-1.3c-0.2,0-0.4-0.1-0.6-0.1c-0.5-0.4-1.3-0.6-2.1-0.6
							c-0.8-0.1-1.6-0.1-2.4-0.2c-0.2,0.3-0.7,0.1-1,0.3c-0.1,0-0.1,0.1-0.2,0.1c-0.1,0-0.2,0-0.2,0c-0.8,0-1.6,0.1-2.3,0.1
							c0.1,0.1,0.2,0.1,0.3,0.1c-0.8,0.2-1.5,0.7-2.2,1.2c-0.2,0.1-0.4,0.2-0.5,0.3c-1,0-1.9,0.3-2.6,1c0.1,0,0.2,0.2,0.1,0.3
							c-0.1,0.3-0.2,0.7-0.3,1c-0.3,0.4-0.7,0.8-1,1.2c0,0,0,0,0,0c0,0,0,0,0,0c0,0,0,0,0,0c-0.6,0.3-1.1,0.8-1.4,1.4
							c-0.3,0.5-0.6,1-0.8,1.6c0.2,0.1,0.3,0.1,0.5,0.1c-0.3,0.7-0.5,1.5-0.7,2.2c-0.6,1-0.9,2.2-0.9,3.4c0.2-0.4,0.4-0.7,0.6-1
							c0,0.1,0,0.1,0,0.2c0,7.2,5.8,13.1,13,13.1c6,0,11-4,12.6-9.6c0.2-0.1,0.5-0.2,0.6-0.4C426,354.6,426,354.1,425.8,353.6z
							 M401.2,345.3l0.2-0.1c-0.1,0.1-0.1,0.2-0.1,0.3L401.2,345.3z"></path>
					</g>
				</g>
				<g>
					<path class="st18" d="M411,338.4c0.4,0,0.8,0.1,1.2,0.1c0,0,0,0,0-0.1C411.8,338.4,411.4,338.4,411,338.4z"></path>
				</g>
				<path class="st17" d="M425.5,349.8c-0.1-0.6-0.3-1.3-0.4-1.9c-0.1-0.6-0.1-1.2-0.2-1.7c0,0.1-0.1,0.3-0.2,0.4
					c0.1-0.7-0.2-1.4-0.8-1.8c-0.2-0.1-0.3-0.2-0.5-0.3c-0.1-0.2-0.3-0.4-0.4-0.5c0.1-0.1,0.3-0.1,0.4,0c-0.4-0.3-0.8-0.6-1.2-0.9
					c-0.8-0.9-1.7-1.6-2.7-2.2c0,0,0-0.1,0-0.1c-0.2-0.8-1.2-1.1-2.1-1.3c-0.2,0-0.4-0.1-0.6-0.1c-0.5-0.4-1.3-0.6-2.1-0.6
					c-0.8-0.1-1.6-0.1-2.4-0.2c-0.2,0.3-0.7,0.1-1,0.3c-0.1,0-0.1,0.1-0.2,0.1c-0.1,0-0.2,0-0.2,0c-0.8,0-1.6,0.1-2.3,0.1
					c0.1,0.1,0.2,0.1,0.3,0.1c-0.8,0.2-1.5,0.7-2.2,1.2c-0.2,0.1-0.4,0.2-0.5,0.3c-1,0-1.9,0.3-2.6,1c0.1,0,0.2,0.2,0.1,0.3
					c-0.1,0.3-0.2,0.7-0.3,1c0,0,15.4-10.5,22.6,8.7C425.8,351,425.7,350.4,425.5,349.8z"></path>
			</g>
			<g>
				<ellipse class="st151" cx="418.7" cy="347" rx="5.4" ry="6.3"></ellipse>
				<path class="st22" d="M418.7,339.5c-3.4,0-6.1,3.3-6.1,7.5c0,4.1,2.7,7.5,6.1,7.5c3.4,0,6.1-3.3,6.1-7.5
					C424.9,342.9,422.1,339.5,418.7,339.5z M418.7,353.2c-2.8,0-5.1-2.8-5.1-6.2c0-3.4,2.3-6.2,5.1-6.2c2.8,0,5.1,2.8,5.1,6.2
					C423.8,350.4,421.6,353.2,418.7,353.2z"></path>
				<path class="st22" d="M411.6,345.9c0,0,0.7-1,1.3,0.3c0,0-1-0.2-1.5,0.4"></path>
				<ellipse class="st151" cx="406.7" cy="348.1" rx="4.8" ry="4.7"></ellipse>
				<path class="st22" d="M406.7,342.5c-3,0-5.5,2.5-5.5,5.6c0,3.1,2.5,5.6,5.5,5.6c3,0,5.5-2.5,5.5-5.6
					C412.2,345,409.7,342.5,406.7,342.5z M406.7,352.7c-2.5,0-4.6-2.1-4.6-4.6c0-2.6,2-4.6,4.6-4.6c2.5,0,4.6,2.1,4.6,4.6
					C411.2,350.7,409.2,352.7,406.7,352.7z"></path>
			</g>
			<ellipse class="st19" cx="406.2" cy="349.2" rx="0.9" ry="1.3"></ellipse>
			<ellipse class="st19" cx="418.7" cy="349.3" rx="0.9" ry="1.3"></ellipse>
			<path class="st20" d="M412.3,349.6c-0.6,0-0.9,0.3-0.9,0.3c-3.2,8.5-3.1,12.2-2.7,13.7c0-4.5,3.6-13.8,3.6-13.8V349.6z"></path>
			<path class="st26" d="M434,396.2h-43.5c-6.6,0-12-5.4-12-12v-16.7c0-6.6,5.4-12,12-12H434c6.6,0,12,5.4,12,12v16.7
				C446,390.8,440.6,396.2,434,396.2z"></path>
			<g>
				<circle class="st2" cx="438.9" cy="371.2" r="0.5"></circle>
				<circle class="st2" cx="438.9" cy="372.5" r="0.5"></circle>
				<circle class="st2" cx="438.9" cy="373.8" r="0.5"></circle>
				<circle class="st2" cx="438.9" cy="375.2" r="0.5"></circle>
				<circle class="st2" cx="438.9" cy="376.5" r="0.5"></circle>
				<circle class="st2" cx="438.9" cy="377.8" r="0.5"></circle>
				<circle class="st2" cx="438.9" cy="379.2" r="0.5"></circle>
				<circle class="st2" cx="438.9" cy="380.5" r="0.5"></circle>
				<circle class="st2" cx="440.5" cy="371.2" r="0.5"></circle>
				<circle class="st2" cx="440.5" cy="372.5" r="0.5"></circle>
				<circle class="st2" cx="440.5" cy="373.8" r="0.5"></circle>
				<circle class="st2" cx="440.5" cy="375.2" r="0.5"></circle>
				<circle class="st2" cx="440.5" cy="376.5" r="0.5"></circle>
				<circle class="st2" cx="440.5" cy="377.8" r="0.5"></circle>
				<circle class="st2" cx="440.5" cy="379.2" r="0.5"></circle>
				<circle class="st2" cx="440.5" cy="380.5" r="0.5"></circle>
			</g>
			<circle class="st152" cx="384.9" cy="387.5" r="2"></circle>
			<circle class="st53" cx="384.9" cy="387.5" r="1.1"></circle>
			<circle class="st38" cx="384.7" cy="387.3" r="0.4"></circle>
			<path class="st16" d="M411.4,349.9c0,0,0.1-0.9,1.8,0.2c0,0-3.6,14.7-4,14.4C408.8,364.1,407.1,361.4,411.4,349.9z"></path>
			<circle class="st2" cx="384.9" cy="392.5" r="1.1"></circle>
			<g>
				<g>
					<g>
						<polygon class="st38" points="430.8,373 430.8,378.7 425.8,381.5 420.8,378.7 420.7,373 425.8,370.2 						"></polygon>
						<path class="st38" d="M425.8,381.6l-5.1-2.9l0-5.7l5.1-2.9l5.1,2.9l0,5.7L425.8,381.6z M420.8,378.7l5,2.8l5-2.8l0-5.6l-5-2.8
							l-5,2.8L420.8,378.7z"></path>
					</g>
					<g>
						<polygon class="st53" points="430.6,372.8 430.6,378.2 425.8,380.9 421.1,378.2 421.1,372.8 425.8,370.1 						"></polygon>
						<path class="st53" d="M425.8,381l-4.8-2.7l0-5.5l4.8-2.7l4.8,2.7l0,5.5L425.8,381z M421.1,378.2l4.7,2.7l4.7-2.7l0-5.3
							l-4.7-2.7l-4.7,2.7L421.1,378.2z"></path>
					</g>
					<g>
						<path class="st2" d="M425.8,373.8c0.9,0,1.7,0.7,1.7,1.6c0,0.9-0.7,1.6-1.7,1.6s-1.7-0.7-1.7-1.6
							C424.1,374.5,424.9,373.8,425.8,373.8z"></path>
						<path class="st2" d="M425.8,377.1c-0.9,0-1.7-0.8-1.7-1.7s0.8-1.7,1.7-1.7c0.9,0,1.7,0.8,1.7,1.7S426.7,377.1,425.8,377.1z
							 M425.8,373.8c-0.9,0-1.6,0.7-1.6,1.6c0,0.9,0.7,1.6,1.6,1.6c0.9,0,1.6-0.7,1.6-1.6C427.4,374.5,426.7,373.8,425.8,373.8z"></path>
					</g>
				</g>
				<g>
					<path class="st38" d="M422.7,375.2c0.3,0,0.6,0.1,0.6,0.2c0,0.1-0.3,0.2-0.6,0.2c-0.3,0-0.6-0.1-0.6-0.2
						C422.1,375.3,422.4,375.2,422.7,375.2z"></path>
					<path class="st38" d="M422.7,375.6c-0.2,0-0.7,0-0.7-0.2c0-0.2,0.4-0.2,0.7-0.2c0.2,0,0.7,0,0.7,0.2
						C423.4,375.6,423,375.6,422.7,375.6z M422.7,375.3c-0.4,0-0.5,0.1-0.6,0.1c0,0,0.2,0.1,0.6,0.1s0.5-0.1,0.6-0.1
						C423.3,375.4,423.1,375.3,422.7,375.3z"></path>
				</g>
				<g>
					<path class="st38" d="M428.8,375.2c0.3,0,0.6,0.1,0.6,0.1c0,0.1-0.3,0.2-0.6,0.2c-0.3,0-0.6-0.1-0.6-0.1
						C428.2,375.3,428.4,375.2,428.8,375.2z"></path>
					<path class="st38" d="M428.7,375.6c-0.3,0-0.6,0-0.6-0.2c0,0,0-0.1,0-0.1c0.1-0.1,0.4-0.2,0.6-0.2l0,0c0.2,0,0.7,0,0.7,0.2
						c0,0,0,0.1,0,0.1C429.3,375.5,429,375.6,428.7,375.6C428.8,375.6,428.7,375.6,428.7,375.6z M428.8,375.3
						c-0.4,0-0.5,0.1-0.6,0.1c0,0,0.2,0.1,0.6,0.1c0.4,0,0.5-0.1,0.6-0.1C429.3,375.3,429.1,375.3,428.8,375.3L428.8,375.3z"></path>
				</g>
				<g>
					<path class="st38" d="M425.6,372.2c0-0.3,0.1-0.6,0.2-0.6s0.2,0.3,0.2,0.6c0,0.3-0.1,0.6-0.2,0.6S425.6,372.6,425.6,372.2z"></path>
					<path class="st38" d="M425.8,372.9c-0.2,0-0.2-0.4-0.2-0.7s0-0.7,0.2-0.7c0.2,0,0.2,0.4,0.2,0.7S425.9,372.9,425.8,372.9z
						 M425.8,371.7c0,0-0.1,0.2-0.1,0.5c0,0.3,0.1,0.5,0.1,0.5c0,0,0.1-0.2,0.1-0.5C425.9,371.9,425.8,371.7,425.8,371.7z"></path>
				</g>
				<g>
					<path class="st38" d="M425.6,378.9c0-0.3,0.1-0.6,0.2-0.6s0.2,0.3,0.2,0.6c0,0.3-0.1,0.6-0.2,0.6S425.6,379.2,425.6,378.9z"></path>
					<path class="st38" d="M425.8,379.5c-0.2,0-0.2-0.4-0.2-0.7s0-0.7,0.2-0.7c0.2,0,0.2,0.4,0.2,0.7S425.9,379.5,425.8,379.5z
						 M425.8,378.3c0,0-0.1,0.2-0.1,0.5s0.1,0.5,0.1,0.5c0,0,0.1-0.2,0.1-0.5C425.9,378.6,425.8,378.4,425.8,378.3z"></path>
				</g>
				<g>
					<path class="st38" d="M423.6,373.2c0.1,0.2,0.3,0.3,0.4,0.3c0.1,0,0-0.2-0.1-0.4c-0.1-0.2-0.3-0.3-0.4-0.3
						C423.4,372.9,423.4,373,423.6,373.2z"></path>
					<path class="st38" d="M424,373.6c-0.1,0-0.3-0.2-0.4-0.4l0,0c-0.1-0.1-0.2-0.3-0.1-0.4c0,0,0-0.1,0.1-0.1
						c0.1,0,0.3,0.2,0.4,0.4C424,373.2,424.1,373.4,424,373.6C424,373.6,424,373.6,424,373.6C424,373.6,424,373.6,424,373.6z
						 M423.6,373.2c0.1,0.2,0.3,0.3,0.3,0.3c0,0,0-0.1-0.1-0.3c-0.1-0.2-0.3-0.3-0.3-0.3C423.5,372.9,423.5,373,423.6,373.2
						L423.6,373.2z"></path>
				</g>
				<g>
					<path class="st38" d="M427.7,377.9c0.1,0.2,0.3,0.3,0.4,0.3c0.1,0,0-0.2-0.1-0.4c-0.1-0.2-0.3-0.3-0.4-0.3
						C427.5,377.5,427.5,377.7,427.7,377.9z"></path>
					<path class="st38" d="M428.1,378.3c-0.1,0-0.3-0.2-0.4-0.4l0,0c-0.1-0.1-0.2-0.3-0.1-0.4c0,0,0-0.1,0.1-0.1
						c0.1,0,0.3,0.2,0.4,0.4C428.1,377.9,428.2,378.1,428.1,378.3C428.1,378.3,428.1,378.3,428.1,378.3
						C428.1,378.3,428.1,378.3,428.1,378.3z M427.6,377.6c0,0,0,0.1,0.1,0.3l0,0c0.1,0.2,0.3,0.3,0.3,0.3c0,0,0-0.1-0.1-0.3
						C427.8,377.7,427.6,377.6,427.6,377.6z"></path>
				</g>
				<g>
					<path class="st38" d="M427.8,373.3c0.2-0.2,0.3-0.4,0.3-0.4c0-0.1-0.2,0-0.4,0.2c-0.2,0.2-0.3,0.4-0.3,0.4
						C427.5,373.6,427.6,373.5,427.8,373.3z"></path>
					<path class="st38" d="M427.5,373.6C427.5,373.6,427.5,373.6,427.5,373.6C427.4,373.6,427.4,373.5,427.5,373.6
						c-0.1-0.2,0-0.4,0.2-0.6c0.1-0.1,0.3-0.2,0.4-0.2c0,0,0.1,0,0.1,0.1c0,0.1-0.1,0.3-0.3,0.5l0,0
						C427.8,373.4,427.6,373.6,427.5,373.6z M428,372.9c0,0-0.1,0-0.3,0.2c-0.2,0.2-0.2,0.3-0.3,0.4c0,0,0.1,0,0.3-0.2
						C427.9,373.1,428,373,428,372.9z"></path>
				</g>
				<g>
					<path class="st38" d="M423.9,378c0.2-0.2,0.3-0.4,0.3-0.4c0-0.1-0.2,0-0.4,0.2c-0.2,0.2-0.3,0.4-0.3,0.4
						C423.5,378.3,423.7,378.2,423.9,378z"></path>
					<path class="st38" d="M423.5,378.3C423.5,378.3,423.5,378.3,423.5,378.3C423.5,378.3,423.5,378.2,423.5,378.3
						c-0.1-0.2,0-0.4,0.2-0.6c0.1-0.1,0.3-0.2,0.4-0.2c0,0,0.1,0,0.1,0.1c0,0.1-0.1,0.4-0.3,0.5l0,0
						C423.8,378.1,423.7,378.3,423.5,378.3z M424.1,377.6c0,0-0.1,0-0.3,0.2c-0.2,0.2-0.3,0.3-0.3,0.4c0,0,0.1,0,0.3-0.2h0
						C424,377.8,424.1,377.6,424.1,377.6z"></path>
				</g>
			</g>
		</g></svg>