<svg xmlns="http://www.w3.org/2000/svg" viewBox="330.35609649658204 172.61403106689454 167.64922668457032 207.97198059082032"><style type="text/css">
	.st0{fill:#00A5A3;}
	.st1{fill:none;stroke:#000000;stroke-miterlimit:10;}
	.st2{fill:#72C6CD;}
	.st3{fill:#F8B84E;}
	.st4{opacity:0.1;fill:#1D1715;}
	.st5{fill:#AC7F3D;}
	.st6{fill:#1A1414;}
	.st7{opacity:0.2;}
	.st8{opacity:0.2;fill:#221A16;}
	.st9{opacity:0.2;fill:#1A1414;}
	.st10{opacity:0.15;fill:#221A16;}
	.st11{fill:#7B4F26;}
	.st12{opacity:0.1;fill:#241B17;}
	.st13{opacity:0.1;fill:#211916;}
	.st14{fill:#F6E570;}
	.st15{fill:#A1A2A2;}
	.st16{fill:#BDBCBC;}
	.st17{fill:#008075;}
	.st18{fill:#00988F;}
	.st19{fill:#00AAA8;}
	.st20{fill:#F9FBFC;}
	.st21{fill:#EDEDED;}
	.st22{fill:#6EC5CC;}
	.st23{fill:#FFD31B;}
	.st24{fill:#F39323;}
	.st25{fill:#DC4A21;}
	.st26{fill:#3D53A0;}
	.st27{fill:#EB5B5B;}
	.st28{fill:#029E81;}
	.st29{fill:#1078BC;}
	.st30{fill:#9DC53C;}
	.st31{fill:#FFFFFF;}
	.st32{fill:#5AC1D2;}
	.st33{fill-rule:evenodd;clip-rule:evenodd;fill:#E6EBEF;}
	.st34{fill-rule:evenodd;clip-rule:evenodd;fill:#F3B05E;}
	.st35{fill-rule:evenodd;clip-rule:evenodd;fill:#E74732;}
	.st36{fill-rule:evenodd;clip-rule:evenodd;fill:#EE6F5D;}
	.st37{fill-rule:evenodd;clip-rule:evenodd;fill:#FFD162;}
	.st38{fill-rule:evenodd;clip-rule:evenodd;fill:#364A5D;}
	.st39{fill-rule:evenodd;clip-rule:evenodd;fill:#89D2F4;}
	.st40{fill-rule:evenodd;clip-rule:evenodd;fill:#F7F9FC;}
	.st41{fill:#FCC156;}
	.st42{opacity:0.1;fill:#040505;}
	.st43{fill:#AF843E;}
	.st44{opacity:0.1;}
	.st45{fill:#010202;}
	.st46{opacity:0.1;fill:#010202;}
	.st47{fill:#8EB532;}
	.st48{fill:#EB5B5A;}
	.st49{fill:#0477BD;}
	.st50{font-family:'RobotoSlab-Bold';}
	.st51{font-size:12px;}
	.st52{font-family:'HarlowSolid';}
	.st53{font-size:27.5px;}
	.st54{fill:#575756;}
	.st55{font-size:25px;}
	.st56{fill:none;}
	.st57{fill:#3C3C3B;}
	.st58{font-family:'Montserrat-Regular';}
	.st59{font-size:11px;}
	.st60{fill:#10AE8F;}
	.st61{fill:#EAF4EE;stroke:#FFFFFF;stroke-miterlimit:10;}
	.st62{font-size:30px;}
	.st63{font-family:'FontAwesome';}
	.st64{font-family:'MyriadPro-Regular';}
	.st65{letter-spacing:33;}
	.st66{fill:#AFCE64;}
	.st67{opacity:0.1;fill:#1A1414;}
	.st68{fill:#A77C3D;}
	.st69{opacity:5.000000e-02;fill:#1A1414;}
	.st70{fill:#D7A45A;}
	.st71{fill:#FCF8D5;}
	.st72{fill:#67BEA5;}
	.st73{fill:#B2B2B2;}
	.st74{fill:none;stroke:#FFFFFF;stroke-width:4.5429;stroke-miterlimit:10;}
	.st75{fill:none;stroke:#FFFFFF;stroke-width:4.5429;stroke-miterlimit:10;stroke-dasharray:14.0722,14.0722;}
	.st76{fill:none;stroke:#FFFFFF;stroke-width:4.5429;stroke-miterlimit:10;stroke-dasharray:12.7429,12.7429;}
	.st77{fill:#76B72A;}
	.st78{font-family:'DKLemonYellowSun';}
	.st79{font-size:10.9838px;}
	.st80{font-size:9.7669px;}
	.st81{font-size:7.9911px;}
	.st82{font-size:9.3959px;}
	.st83{opacity:5.000000e-02;}
	.st84{fill:#C0CFD9;}
	.st85{fill:#B74848;}
	.st86{fill:#FEFEFE;}
	.st87{fill:#DADADA;}
	.st88{fill:#222223;}
	.st89{fill:#F39200;}
	.st90{fill:#DDAE29;}
	.st91{fill:#9A9B9B;}
	.st92{fill:#D8D5D5;}
	.st93{fill:#D01E28;}
	.st94{fill:#49AD37;}
	.st95{fill:#ECD527;}
	.st96{fill:#C61D1B;}
	.st97{fill:#00B3BA;}
	.st98{font-size:2.4192px;}
	.st99{font-family:'DKAintNothingFancy';}
	.st100{font-size:8.0364px;}
	.st101{font-size:3.6289px;}
	.st102{font-size:4.6271px;}
	.st103{font-size:2.2323px;}
	.st104{font-size:6.8545px;}
	.st105{fill:#9BA3AE;}
	.st106{fill:#ACB6C6;}
	.st107{fill:#E6233C;}
	.st108{opacity:0.2;fill:#FFFFFF;}
	.st109{opacity:0.7;}
	.st110{opacity:0.1;fill:#FFFFFF;}
	.st111{opacity:0.15;fill:#F9F8F9;}
	.st112{fill:#4B4240;}
	.st113{fill:#C41F1C;}
	.st114{opacity:0.15;}
	.st115{fill:#F3F1F2;}
	.st116{fill:#6F635C;}
	.st117{fill:#D6D3D3;}
	.st118{opacity:0.15;fill:#1A1414;}
	.st119{fill:#CDE1E7;}
	.st120{font-size:5.0401px;}
	.st121{fill:#EB5B5B;stroke:#20B4B1;stroke-width:0.9739;stroke-miterlimit:10;}
	.st122{font-size:2.4658px;}
	.st123{fill:#F6B84F;}
	.st124{fill:#AC7E3D;}
	.st125{fill:#6460A8;}
	.st126{opacity:0.1;fill:#020203;}
	.st127{opacity:5.000000e-02;fill:#020203;}
	.st128{opacity:7.000000e-02;fill:#020203;}
	.st129{fill:#020203;}
	.st130{fill:#34A2A7;}
	.st131{fill:#81BF6E;}
	.st132{fill:#22537D;}
	.st133{fill:#34669A;}
	.st134{fill:#2C3436;}
	.st135{fill:#E99F0B;stroke:#E99F0B;stroke-width:0.15;stroke-miterlimit:10;}
	.st136{fill:#F3BB2C;stroke:#F3BB2C;stroke-width:0.15;stroke-miterlimit:10;}
	.st137{opacity:0.2;fill:#020203;stroke:#020203;stroke-width:0.15;stroke-miterlimit:10;}
	.st138{fill:#F3A930;stroke:#F3A930;stroke-width:0.15;stroke-miterlimit:10;}
	.st139{opacity:0.2;fill:#040505;stroke:#040505;stroke-width:0.15;stroke-miterlimit:10;}
	.st140{fill:#FED875;stroke:#FED875;stroke-width:0.15;stroke-miterlimit:10;}
	.st141{fill:#1E5F90;}
	.st142{fill:none;stroke:#FFFFFF;stroke-width:4;stroke-linecap:round;stroke-linejoin:round;}
	.st143{fill:none;stroke:#FFFFFF;stroke-width:4;stroke-linecap:round;stroke-linejoin:round;stroke-dasharray:11.73,11.73;}
	.st144{fill:none;stroke:#FFFFFF;stroke-width:4;stroke-linecap:round;stroke-linejoin:round;stroke-dasharray:11.7952,11.7952;}
	.st145{font-size:18.4537px;}
	.st146{fill:none;stroke:#3C3C3B;stroke-width:4;stroke-linecap:round;stroke-miterlimit:10;}
	.st147{fill:none;stroke:#3C3C3B;stroke-width:4;stroke-linecap:round;stroke-miterlimit:10;stroke-dasharray:12.7477,25.4953;}
	.st148{opacity:0.1;fill:#1D1715;stroke:#3C3C3B;stroke-miterlimit:10;}
	.st149{opacity:0.15;fill:#3C3C3B;}
	.st150{opacity:0.1;fill:#3C3C3B;}
	.st151{fill:#291C19;}
	.st152{fill:#F5A153;}
	.st153{fill:#F5A70D;}
	.st154{fill:#F2C553;}
	.st155{fill:#FFE3B3;}
	.st156{fill:#FBFAF6;}
	.st157{fill:#DAD6D9;}
	.st158{fill:#EAEAEA;}
	.st159{opacity:5.000000e-02;fill:#1A1414;stroke:#1A1414;stroke-miterlimit:10;}
	.st160{fill:#F28D5C;}
	.st161{opacity:7.000000e-02;fill:#1A1414;}
	.st162{fill:#222222;}
	.st163{fill:#D1CFCE;}
	.st164{fill:#1B1515;}
	.st165{fill:#EDEBEC;}
	.st166{fill:#A6A7A7;}
	.st167{fill:none;stroke:#FFFFFF;stroke-width:5;stroke-miterlimit:10;stroke-dasharray:2,2;}
	.st168{opacity:0.8;fill:#CABAA0;}
	.st169{fill:#E84436;}
	.st170{fill:#32A853;}
	.st171{fill:#517CBE;}
	.st172{fill:#FBBC0C;}
	.st173{fill:#883189;}
	.st174{fill:#88328A;}
	.st175{fill:#964D98;}
	.st176{fill:#A66BAA;}
	.st177{fill:#FBB811;}
	.st178{fill:#527BBE;}
	.st179{fill:#82A5D7;}
	.st180{fill:#4555A2;}
	.st181{fill:#4870B6;}
	.st182{fill:#98B7E1;}
	.st183{fill:#6876B8;}
	.st184{fill:#6978B9;}
	.st185{fill:#97B7E1;}
	.st186{fill:#EFEFEE;}
	.st187{fill:#476DB3;}
	.st188{fill:#4B5BA6;}
	.st189{fill:#84A9D9;}
	.st190{fill:#F07E11;}
	.st191{fill:#FEC82B;}
	.st192{fill:#FDC41C;}
	.st193{fill:#547DBF;}
	.st194{fill:#E94738;}
	.st195{fill:#FBBD13;}
	.st196{fill:#3AAA56;}
	.st197{fill:#B34E50;}
	.st198{fill:#020404;}
	.st199{fill:#D3D5D7;}
	.st200{fill:#87CABC;}
	.st201{fill:#C2C4C8;}
	.st202{fill:#BCBFC2;}
	.st203{fill:#E75739;}
	.st204{fill:#3AB49D;}
	.st205{fill:#C14725;}
	.st206{fill:#FDFEFE;}
	.st207{fill:#FFFFFF;stroke:#7C7B7C;stroke-miterlimit:10;}
	.st208{fill:#D8676E;}
	.st209{fill:#9FA6AF;}
	.st210{opacity:0.2;fill:#007BB5;}
	.st211{fill:#4AB063;}
	.st212{fill:#F9B04C;}
	.st213{fill:#E2A645;}
	.st214{fill:#00A1E0;}
	.st215{opacity:0.2;fill:#38B6AE;}
	.st216{fill:#4759A5;}
	.st217{fill:#FDC441;}
	.st218{fill:#ED6D1D;}
	.st219{fill:#E01F85;}
	.st220{fill:#E62342;}
	.st221{fill:#E12D87;}
	.st222{fill:#D92725;}
	.st223{fill:#CB2020;}
	.st224{fill:#D22323;}
	.st225{fill:#E8E0E0;}
	.st226{fill:#1F1919;}
	.st227{fill:#1E1717;}
	.st228{fill:#221A17;}
	.st229{fill:#6580BF;}
	.st230{fill:#D73117;}
	.st231{opacity:0.1;fill:#1C1615;}
	.st232{fill:#1B8CCD;}
	.st233{fill:#0088B4;}
	.st234{fill:#62C0B9;}
	.st235{opacity:0.1;fill:#201918;}
	.st236{fill:#137BC0;}
	.st237{fill:#9A6B37;}
	.st238{fill:#5A84C3;}
	.st239{fill:#1F945D;}
	.st240{fill:#149F5C;}
	.st241{fill:#15985A;}
	.st242{fill:#20995E;}
	.st243{fill:#26855A;}
	.st244{fill:#79A4D5;}
	.st245{fill:#359261;}
	.st246{fill:#4870B5;}
	.st247{fill:#238D5C;}
	.st248{opacity:0.25;}
	.st249{fill:#F9F6F6;}
	.st250{fill:#281E17;}
	.st251{fill:#EB5E39;}
	.st252{fill:#9C5D90;}
	.st253{fill:#9C5E90;}
	.st254{fill:#1A1414;stroke:#1A1414;stroke-miterlimit:10;}
	.st255{fill:#114226;}
	.st256{fill:#00A674;}
	.st257{fill:#97312D;stroke:#9E2723;stroke-miterlimit:10;}
	.st258{fill:#A8CB61;stroke:#A8CB61;stroke-miterlimit:10;}
	.st259{fill:#CBDE9B;stroke:#CADEA0;stroke-miterlimit:10;}
	.st260{fill:#00A674;stroke:#1A1414;stroke-miterlimit:10;}
	.st261{fill:#007947;}
	.st262{fill:#00565B;}
	.st263{fill:#008FA6;}
	.st264{fill:#006E78;}
	.st265{fill:#AEB8C9;}
	.st266{fill:#00A674;stroke:#9E2723;stroke-miterlimit:10;}
	.st267{fill:#00A674;stroke:#A8CB61;stroke-miterlimit:10;}
	.st268{fill:#00A674;stroke:#CADEA0;stroke-miterlimit:10;}
	.st269{fill:#966D42;}
	.st270{fill:#D7A45C;}
	.st271{fill:#C29253;}
	.st272{fill:#2B378C;}
	.st273{fill:#2E414F;}
	.st274{fill:#293B48;}
	.st275{fill:#346968;}
	.st276{fill:#293C49;}
	.st277{fill:#356868;}
	.st278{fill:#48B19C;}
	.st279{fill:#48B19B;}
	.st280{fill:#48B09B;}
	.st281{fill:#2E424F;}
	.st282{fill:#48AF9A;}
	.st283{fill:#346867;}
	.st284{fill:#E99F0B;stroke:#E99F0B;stroke-miterlimit:10;}
	.st285{fill:#F3BB2C;stroke:#F3BB2C;stroke-miterlimit:10;}
	.st286{opacity:0.2;fill:#020203;stroke:#020203;stroke-miterlimit:10;}
	.st287{fill:#F3A930;stroke:#F3A930;stroke-miterlimit:10;}
	.st288{opacity:0.2;fill:#040505;stroke:#040505;stroke-miterlimit:10;}
	.st289{fill:#FED875;stroke:#FED875;stroke-miterlimit:10;}
	.st290{fill:#465B65;}
	.st291{fill:#78909B;}
	.st292{fill:#62C5E3;}
	.st293{fill:#77B82C;}
	.st294{fill:#BA9A36;}
	.st295{fill:#79A6C1;}
	.st296{fill:#6FB1DE;}
	.st297{fill:#98BFD7;}
	.st298{fill:#FFF4C5;}
	.st299{fill:#CAE5DA;}
	.st300{fill:#E2E2E1;}
	.st301{fill:#E1E2E1;}
	.st302{fill:#C5E1D5;}
	.st303{fill:#20B4B1;}
	.st304{fill:#683C11;}
	.st305{fill:#432918;}
	.st306{fill:#D38C0B;stroke:#E99F0B;stroke-miterlimit:10;}
	.st307{fill:#739341;}
	.st308{fill:#5E7535;}
	.st309{fill:#195275;}
	.st310{fill:#78CCF3;}
	.st311{fill:#6685C3;}
	.st312{fill:#5369B0;}
	.st313{fill:#72ACDE;}
	.st314{fill:#75B5E4;}
	.st315{fill:#73ADDF;}
	.st316{fill:#75B8E6;}
	.st317{fill:#6F9ED4;}
	.st318{fill:#7E7E7E;}
	.st319{fill:#4573B8;}
	.st320{fill:#2F61AB;}
	.st321{fill:#020202;}
	.st322{fill:#020202;stroke:#020202;stroke-width:1.6646;stroke-miterlimit:10;}
	.st323{fill:#FBBD3E;}
	.st324{opacity:0.29;fill:#010202;}
	.st325{fill:#9E7E40;}
	.st326{fill:#AF843E;stroke:#9E7E40;stroke-width:1.6646;stroke-miterlimit:10;}
	.st327{fill:#78551C;}
	.st328{fill:#9E7E40;stroke:#020304;stroke-width:1.6646;stroke-miterlimit:10;}
	.st329{fill:#020304;}
	.st330{fill:#050505;stroke:#000000;stroke-width:1.6646;stroke-miterlimit:10;}
	.st331{fill:#FCC156;stroke:#FBBD3E;stroke-width:1.6646;stroke-miterlimit:10;}
	.st332{fill:#010202;stroke:#010202;stroke-width:1.6646;stroke-miterlimit:10;}
	.st333{opacity:0.2;fill:#78551C;}
	.st334{opacity:0.2;fill:#010202;}
	.st335{fill:#3B3438;}
	.st336{fill:#676365;}
	.st337{opacity:0.2;fill:#3B3438;}
	.st338{fill:#9A9999;}
	.st339{fill:#D8D9D9;}
	.st340{fill:#DB1229;}
	.st341{fill:#5DB130;}
	.st342{fill:#F6E222;}
	.st343{fill:#D11317;}
	.st344{fill:#3FBAC4;}
	.st345{fill:#E72B69;}
	.st346{fill:#5CB244;}
	.st347{fill:#595AA0;}
	.st348{fill:#38B1E0;}
	.st349{fill:#F3E73A;}
	.st350{fill:#F39038;}
	.st351{fill:#F2EA68;}
	.st352{fill:#6F716F;}
	.st353{fill:#EDE1A2;}
	.st354{opacity:0.2;fill:#020304;}
	.st355{fill:#D1D1D1;}
	.st356{fill:#706F6F;}
	.st357{fill:#109B97;}
	.st358{opacity:0.2;fill-rule:evenodd;clip-rule:evenodd;fill:#030304;}
	.st359{fill-rule:evenodd;clip-rule:evenodd;fill:#385FA9;}
	.st360{fill-rule:evenodd;clip-rule:evenodd;fill:#FFFFFF;}
	.st361{fill-rule:evenodd;clip-rule:evenodd;fill:#18A8E1;}
	.st362{fill-rule:evenodd;clip-rule:evenodd;fill:#52B47D;}
	.st363{fill-rule:evenodd;clip-rule:evenodd;fill:#E41513;}
	.st364{fill-rule:evenodd;clip-rule:evenodd;fill:#FCFCFC;}
	.st365{fill:#F8C138;}
	.st366{fill:#EA771A;}
	.st367{fill:#EF952D;}
	.st368{fill:#FFFFFF;stroke:#FFFFFF;stroke-miterlimit:10;}
	.st369{fill:#02A186;}
	.st370{fill-rule:evenodd;clip-rule:evenodd;fill:#1078BC;}
	.st371{fill:#2CBDED;}
	.st372{fill:#2B6196;}
</style><g>
			<g>
				<path class="st3" d="M434.1,360.1c3.2-6.5,8.3-11.5,12-12.1c0.6-0.3,1.2-0.5,1.8-0.5c3.8,0,6.8,6.1,6.5,13.6
					c-0.2,7.5-3.5,13.6-7.4,13.6c-2.1,0-3.9-1.8-5.1-4.7c-2.7,2.8-5.6,4.5-7.7,4.2C430.6,373.7,430.5,367.4,434.1,360.1z"></path>
				<path class="st67" d="M447.9,347.6c-0.6,0-1.2,0.2-1.8,0.5c-3.7,0.6-8.8,5.6-12,12.1c-0.2,0.4-0.4,0.7-0.5,1.1
					c2.6,2.4,6.2,3.8,10.1,3.8c4.3,0,8.1-1.7,10.8-4.5C454.5,353.3,451.7,347.6,447.9,347.6z"></path>
			</g>
			<g>
				<g>
					<path class="st68" d="M465.4,204.6c-0.2,0.4,0.1,0.8,0.4,1.2c0.1,0.1,0.2,0.3,0.3,0.4l0.2-1.5
						C466.4,204.3,465.6,204.2,465.4,204.6z"></path>
				</g>
				<g>
					<path class="st68" d="M489.5,279.2c-0.4-2.1-1-4.2-1.6-6.2c0.1,0.1,0.1,0.1,0.2,0.2l-0.2-0.3c-1.3-4.3-3-8.4-5.1-12.3
						c0.2-0.6,0.5-1.1,1-1.5c-1.5-0.7-2.3-2.5-1.9-4.1c-0.8,0.7-2.1,0-2.6-1c-0.4-1-0.3-2.1-0.6-3.1c-0.7-2.1-2.8-3.1-5-3.5
						c-0.5-0.6-1-1.1-1.5-1.7c0.7-3.4,1.2-6.8,1.3-10.4c0.4-0.2,0.9-0.5,1.3-0.6c-0.1-0.6-0.6-0.8-1.3-0.9c0-0.7,0-1.5-0.1-2.2
						c0.7,0.1,1.3,0.2,1.9,0c-1.3-2.6-2.2-5.4-2.5-8.2l-0.2,1c-0.6-3.3-1.5-6.5-2.6-9.5c0.1,0,0.1-0.1,0.2-0.1
						c0.3-0.2,0.6-0.4,0.7-0.7c0.2-0.6-0.2-1.2-0.5-1.7c-1.4-2-2.8-3.9-4.2-5.9l0,0.2c-2.5-4.3-5.6-8.3-9.2-11.8
						c-1.6-2.5-4.2-4.3-6.9-5.8c-5.4-3.8-11.6-6.7-18.2-8.5l0-0.1c-2.5-0.8-5.1-1.3-7.7-1.5c0.1,0,0.2,0.1,0.4,0.1
						c-0.8-0.1-1.6-0.2-2.5-0.3c0.7,0,1.4,0.1,2.1,0.1c-1.4-0.4-2.8-0.5-4.2-0.3c-0.9,0-1.8-0.1-2.7-0.1c-5.3,0-10.4,0.7-15.3,2.1
						c-2.7,0-5.4,0.7-7.7,2.1c0.5,0,1,0,1.5,0c-1.9,0.8-3.7,1.6-5.4,2.5c-3.6,1-7.2,2.2-10.7,3.7c0.7,0.6,1.5,1.1,2.2,1.7
						c-2.7,0.3-5.2,1.2-7.5,2.7c2.1-0.5,4.3-1.1,6.4-1.6c-1.2,1-2.4,2.1-3.6,3.2c-0.5,0.5-1.1,1-1.6,1.6c0,0,0,0,0,0
						c-2.8,3-5.3,6.3-7.4,9.9c-0.9,1.2-1.6,2.4-2.1,3.8c0,0,0,0,0.1,0c-0.4,0.9-0.8,1.8-1.2,2.7c-0.7,1-1.4,2.1-2,3.2
						c0.3,0,0.5,0,0.8-0.1c-1,2.8-1.8,5.8-2.3,8.8c-1.4,1.1-1.5,3.3-1.4,5.2c0,3.6-0.4,7.3-1.2,10.8c0.8,0.4,1.6,0.8,2.5,1.2
						c0.4,2.5,0.9,4.9,1.6,7.2c-0.5,0.7-1.1,1.3-1.6,2c-2.4,2-4.6,4.3-6.3,7c1-0.7,1.9-1.3,2.9-2c-1.3,2.1-2.6,4.3-3.7,6.5
						c-1.9,3.2-3.6,6.5-5,9.9c0.3-0.2,0.6-0.5,0.9-0.7c-2,1.9-2.6,4.9-2.7,7.7c-0.1,3.2,0.4,6.6-0.7,9.6c0.1-0.4,0.3-0.8,0.5-1.1
						c-0.1,1.8-0.2,3.6-0.2,5.5c0,1.1,0,2.2,0.1,3.3c-0.1-0.2-0.3-0.3-0.5-0.5l0.6,1.9c0.1,1.2,0.2,2.4,0.3,3.6
						c-0.3,7.5,1.2,15.1,4.3,21.9c0.3-0.9,0.6-1.8,0.8-2.8c2.3,5.3,5.2,10.2,8.6,14.7c0.2,0.6,0.4,1.3,0.6,1.9
						c-0.9-0.1-1.8-0.2-2.7-0.3l2.7,0.4c2.9,7.6,9.7,13.8,17.8,15.8c0.9,0.7,1.9,1.3,2.8,2c0.1,0,0.1,0.1,0.2,0.1
						c0,0.1,0.1,0.1,0.1,0.2c0.7,1.2,2,2,3.4,2.2c1.1,0.8,2.2,1.6,3.3,2.3c0.6,0.4,1.1,0.8,1.8,1c0.7,0.2,1.5,0.2,2.2,0.1
						c1.6-0.1,3.1-0.2,4.7-0.3c6.6,2,13.6,3,20.8,3c1.8,0,3.6-0.1,5.3-0.2c0.6,0.7,0,2.1-0.6,3c7.9-2,15.6-4.7,23-8.3
						c4.4-1.8,8.7-4.1,12.6-6.7c0.8,0,1.6,0.1,2.4,0.1c1.4-1.2,2.8-2.3,4.2-3.5c-0.6,0.6-0.9,1.5-0.8,2.3c2.2-3.8,5-7.3,8.2-10.3
						c1.3-1.2,2.6-2.3,3.5-3.7c0.6-1,1.1-2.1,1.4-3.2c2.8-4,5.2-8.3,7.2-12.8c2.8-2.5,4.2-6.2,4.6-9.8c0.2-1.9,0.2-3.8,0-5.7
						c0.7-3.9,1-7.9,1-11.9c0-1.3,0-2.6-0.1-3.8c0.2,0.1,0.4,0.1,0.6,0.2C493.1,286.3,491.3,282.7,489.5,279.2z"></path>
				</g>
				<path class="st67" d="M424.4,363.9c0.6,0.7,0,2.1-0.6,3c7.9-2,15.6-4.7,23-8.3c4.4-1.8,8.7-4.1,12.6-6.7c0.8,0,1.6,0.1,2.4,0.1
					c1.4-1.2,2.8-2.3,4.2-3.5c-0.6,0.6-0.9,1.5-0.8,2.3c2.2-3.8,5-7.3,8.2-10.3c1.3-1.2,2.6-2.3,3.5-3.7c0.6-1,1.1-2.1,1.4-3.2
					c2.8-4,5.2-8.3,7.2-12.8c2.8-2.5,4.2-6.2,4.6-9.8c0.2-1.9,0.2-3.8,0-5.7c-47.3,100.2-128,32.2-128,32.2l0,0.1l0.1,0
					c2.9,7.6,9.7,13.8,17.8,15.8c0.9,0.7,1.9,1.3,2.8,2c0.1,0,0.1,0.1,0.2,0.1c0,0.1,0.1,0.1,0.1,0.2c0.7,1.2,2,2,3.4,2.2
					c1.1,0.8,2.2,1.6,3.3,2.3c0.6,0.4,1.1,0.8,1.8,1c0.7,0.2,1.5,0.2,2.2,0.1c1.6-0.1,3.1-0.2,4.7-0.3c6.6,2,13.6,3,20.8,3
					C420.8,364.1,422.6,364,424.4,363.9z"></path>
				<path class="st69" d="M404.4,180.1l0.1-0.1c-0.9,0.2-1.7,0.4-2.5,0.6c-2.7,0-5.4,0.7-7.7,2.1c0.5,0,1,0,1.5,0
					c-1.9,0.8-3.7,1.6-5.4,2.5c-3.6,1-7.2,2.2-10.7,3.7c0.7,0.6,1.5,1.1,2.2,1.7c-2.7,0.3-5.2,1.2-7.5,2.7c2.1-0.5,4.3-1.1,6.4-1.6
					c-1.2,1-2.4,2.1-3.6,3.2c-0.5,0.5-1.1,1-1.6,1.6c0,0,0,0,0,0c-2.8,3-5.3,6.3-7.4,9.9c-0.9,1.2-1.6,2.4-2.1,3.8c0,0,0,0,0.1,0
					c-0.4,0.9-0.8,1.8-1.2,2.7c-0.7,1-1.4,2.1-2,3.2c0.3,0,0.5,0,0.8-0.1c-1,2.8-1.8,5.8-2.3,8.8c-1.4,1.1-1.5,3.3-1.4,5.2
					c0,3.6-0.4,7.3-1.2,10.8c0.8,0.4,1.6,0.8,2.5,1.2c0,0,0,0,0,0C367.3,191.1,404.4,180.1,404.4,180.1z"></path>
			</g>
			<ellipse class="st6" cx="396.2" cy="220.7" rx="4.2" ry="4.2"></ellipse>
			<ellipse class="st6" cx="435.6" cy="220.7" rx="4.2" ry="4.2"></ellipse>
			<path class="st3" d="M407.8,229.7c0,0,2.5-3,8.8,1.1c0,0-15.2,53.8-16.7,52.6C398.4,282.2,392.2,272,407.8,229.7z"></path>
			<path class="st69" d="M411.1,228.7c-2.2-0.2-3.3,1-3.3,1c-11.5,31.2-11.2,44.9-9.6,50.5c0.1-16.7,12.9-51,12.9-51V228.7z"></path>
			<g>
				<path class="st70" d="M371.4,349.4c0,0,3.2,7.6,11,5.5c6.8-1.8,5.3-10.3,5.3-10.3l-18.8-69.2l-13.1,5L371.4,349.4z"></path>
				<path class="st67" d="M358.4,292.2l12.9,57.1c0,0,3.2,7.6,11,5.5c2.2-0.6,3.5-1.8,4.3-3.3C373.8,348.4,363.2,311.6,358.4,292.2z
					"></path>
				<path class="st71" d="M341.7,218.2c0,0,3.3,18.2,17.1,23.1c0,0,13.1,4.5,5.9,18.4c0,0-11.5,2.4-12.7,2.6
					C349.6,262.5,325.9,251.7,341.7,218.2z"></path>
				<path class="st72" d="M353.9,239.6l0.1-0.7c-9.8-6.8-12.4-20.7-12.4-20.7c-5.7,12.1-6.2,21.2-4.5,27.9c0-0.1,1.4-9,3.7-5.4
					c2.3,3.6,4.7,8.3,4.7,8.3s-0.9-10,2-8.9s5.3,5.9,5.3,5.9S352.4,241.8,353.9,239.6z"></path>
				<path class="st67" d="M341.7,218.2c-15.8,33.5,8,44.3,10.3,44C328.2,248.3,341.7,218.2,341.7,218.2z"></path>
				<g class="st44">
					<g>
						<path class="st6" d="M346.7,250.7c1.1,3.8,4.3,6.7,8.3,6.8c0.4,0,1-0.5,0.4-0.6c-3.8-0.2-6.7-3-7.7-6.5
							C347.5,250.1,346.6,250.4,346.7,250.7L346.7,250.7z"></path>
					</g>
				</g>
				<g class="st44">
					<g>
						<path class="st6" d="M357.6,244c2.9,3.6,4,8.1,3,12.7c-0.1,0.4,0.9,0.2,1-0.1c0.9-4.6-0.2-9.2-3.1-12.9
							C358.3,243.3,357.4,243.7,357.6,244L357.6,244z"></path>
					</g>
				</g>
				<g class="st44">
					<g>
						<path class="st6" d="M353.2,248.7c0.3,2.6,1,6,4.1,6.2c0.3,0,1-0.5,0.4-0.5c-2.8-0.2-3.3-3.8-3.6-5.9
							C354.1,248.1,353.1,248.4,353.2,248.7L353.2,248.7z"></path>
					</g>
				</g>
				<path class="st73" d="M369,273l-0.3-1.2c-0.1-0.6-0.6-1-1.2-1l-1.2-4.5l0.1,0c0.6-0.1,1-0.8,0.8-1.4l-0.3-1.2
					c-0.1-0.6-0.7-1.1-1.3-0.9l-0.3,0.1l-0.8-3l-12.7,2.6l0.7,3.3l-0.4,0.1c-0.6,0.1-1,0.8-0.8,1.4l0.3,1.2c0.1,0.6,0.7,1.1,1.3,0.9
					l0.5-0.1l0.9,4.6l-0.5,0.1c-0.6,0.1-1,0.8-0.8,1.4l0.3,1.2c0.1,0.6,0.7,1.1,1.3,0.9l0.5-0.1l0.6,3.1l13.6-3.2l-0.8-3
					C368.9,274,369.1,273.5,369,273z"></path>
				<path class="st67" d="M352.9,262.2l-0.9,0.2l0.7,3.2l-0.4,0.1c-0.6,0.1-1,0.8-0.8,1.4l0.3,1.2c0.1,0.6,0.7,1.1,1.3,0.9l0.5-0.1
					l0.9,4.6l-0.5,0.1c-0.6,0.1-1,0.8-0.8,1.4l0.3,1.2c0.1,0.6,0.7,1.1,1.3,0.9l0.5-0.1l0.6,3.1l13-3l0,0
					C355,279.6,352.7,262.9,352.9,262.2z"></path>
				<g class="st44">
					<g>
						<path class="st6" d="M356.7,269.3c2.2,0.1,4.3-0.3,6.3-1.1c0.3-0.1,0.7-0.5,0.5-0.9c-0.2-0.4-1-0.2-1.3-0.1
							c-1.5,0.6-3.1,0.9-4.8,0.8C356.6,268.1,355.4,269.3,356.7,269.3L356.7,269.3z"></path>
					</g>
				</g>
				<g class="st44">
					<g>
						<path class="st6" d="M359.6,277.1c2.4-0.2,4.8-0.8,6.9-1.9c1.2-0.6,0.1-1.2-0.8-0.8c-1.9,0.9-3.8,1.5-5.9,1.6
							C358.9,276.2,358.2,277.2,359.6,277.1L359.6,277.1z"></path>
					</g>
				</g>
				<path class="st3" d="M363.8,315.6c0,0-5.8,9.7,6.8,7c0,0,4.9-4-0.3-6.3L363.8,315.6z"></path>
				<path class="st3" d="M378.9,308.5c0,0,7.2,9.4-3.5,9.7c0,0-4.9-3.2-1.3-7.2L378.9,308.5z"></path>
				<path class="st67" d="M373.5,316.5L373.5,316.5c0.8,1.1,1.8,1.8,1.8,1.8c10.7-0.4,3.5-9.7,3.5-9.7
					C382.7,319.1,373.5,316.5,373.5,316.5z"></path>
				<path class="st3" d="M362.2,308.8c0.1-2.7-6,11.6,7.8,7.7c0,0,4.5-4.4-0.7-6.7L362.2,308.8z"></path>
				<path class="st67" d="M363.2,316.8c-1.1,2.5-2.4,7.9,7.4,5.8c0,0,0.3-0.3,0.7-0.7C361.2,325.5,363.2,316.8,363.2,316.8z"></path>
			</g>
		</g></svg>